<svg width="16" height="15" viewBox="0 0 16 15" fill="none" xmlns="http://www.w3.org/2000/svg">
<g filter="url(#filter0_d)">
<path fill-rule="evenodd" clip-rule="evenodd" d="M12.547 8.328C12.3585 8.25076 12.1567 8.21102 11.953 8.211C11.7626 8.20016 11.5724 8.23478 11.398 8.312C11.2471 8.38478 11.1032 8.47114 10.968 8.57C10.8364 8.66551 10.716 8.77554 10.609 8.898C10.505 9.018 10.404 9.128 10.305 9.227C10.2151 9.3179 10.1181 9.40149 10.015 9.477C9.91086 9.55161 9.78337 9.5863 9.65579 9.57473C9.5282 9.56317 9.40902 9.50612 9.32 9.414C9.20994 9.31077 9.1006 9.20677 8.992 9.102C8.852 8.966 8.68 8.802 8.477 8.609C8.26456 8.4075 8.05355 8.2045 7.844 8L7.164 7.336C6.74648 6.92779 6.34292 6.50555 5.954 6.07C5.81432 5.91645 5.68376 5.75483 5.563 5.586C5.469 5.451 5.422 5.352 5.422 5.289C5.41619 5.17612 5.45215 5.06506 5.523 4.977C5.596 4.883 5.683 4.787 5.781 4.687C5.881 4.589 5.99 4.484 6.109 4.375C6.229 4.265 6.339 4.148 6.438 4.023C6.536 3.898 6.62 3.755 6.688 3.593C6.755 3.433 6.789 3.25 6.789 3.047C6.78899 2.63435 6.62621 2.23836 6.336 1.945C6.14917 1.7616 5.97193 1.56868 5.805 1.367C5.61421 1.13981 5.40806 0.925973 5.188 0.727C4.97438 0.531505 4.74114 0.358588 4.492 0.211C4.26573 0.0740285 4.0065 0.0010983 3.742 0C3.3297 0.000273834 2.93411 0.163034 2.641 0.453C2.37 0.724 2.133 0.966 1.93 1.18C1.73518 1.38262 1.56223 1.60518 1.414 1.844C1.27035 2.08097 1.16505 2.33916 1.102 2.609C1.02859 2.94255 0.994363 3.28352 1 3.625C1 4.177 1.089 4.75 1.266 5.344C1.443 5.937 1.682 6.529 1.984 7.117C2.286 7.706 2.654 8.284 3.086 8.852C3.518 9.419 3.987 9.958 4.492 10.469C4.997 10.979 5.534 11.451 6.102 11.883C6.669 12.315 7.25 12.688 7.844 13C8.437 13.313 9.034 13.557 9.633 13.734C10.2005 13.9065 10.7899 13.9961 11.383 14C11.722 13.9998 12.06 13.9629 12.391 13.89C12.6638 13.8284 12.9249 13.7231 13.164 13.578C13.394 13.438 13.614 13.266 13.828 13.063C14.042 12.859 14.281 12.625 14.547 12.359C14.8371 12.0656 14.9999 11.6696 15 11.257C14.9887 11.0816 14.9544 10.9085 14.898 10.742C14.8395 10.5676 14.7527 10.4041 14.641 10.258C14.5243 10.1048 14.4015 9.95638 14.273 9.813C14.1406 9.66466 14 9.52378 13.852 9.391C13.7091 9.26288 13.5657 9.13522 13.422 9.008C13.2962 8.89708 13.1738 8.78236 13.055 8.664C12.9101 8.51879 12.7373 8.40448 12.547 8.328V8.328ZM12.18 12.914C11.9191 12.9767 11.6513 13.0056 11.383 13C10.8689 12.9903 10.3586 12.9088 9.867 12.758C9.31692 12.5918 8.78545 12.3692 8.281 12.094C7.15948 11.4799 6.1331 10.7061 5.234 9.797C4.777 9.33482 4.34663 8.84703 3.945 8.336C3.55507 7.84193 3.21035 7.3138 2.915 6.758C2.63972 6.24408 2.41436 5.70494 2.242 5.148C2.0854 4.64745 2.00385 4.12646 2 3.602C1.99975 3.33586 2.0313 3.07065 2.094 2.812C2.151 2.594 2.237 2.398 2.352 2.227C2.466 2.055 2.607 1.888 2.773 1.727C2.94 1.565 3.13 1.377 3.343 1.164C3.39485 1.11068 3.45713 1.06861 3.52594 1.04039C3.59476 1.01218 3.66864 0.998429 3.743 1C3.805 0.995 3.901 1.036 4.031 1.125C4.161 1.214 4.302 1.32 4.453 1.445C4.7791 1.71701 5.07999 2.0179 5.352 2.344C5.477 2.494 5.581 2.633 5.664 2.758C5.747 2.883 5.789 2.979 5.789 3.047C5.79798 3.16027 5.76166 3.27248 5.688 3.359C5.615 3.443 5.528 3.539 5.43 3.649C5.33 3.758 5.221 3.862 5.102 3.961C4.982 4.06 4.872 4.177 4.773 4.312C4.67363 4.44824 4.58978 4.59515 4.523 4.75C4.45254 4.92113 4.41816 5.10497 4.422 5.29C4.427 5.503 4.469 5.703 4.547 5.89C4.625 6.078 4.737 6.245 4.883 6.39L8.609 10.117C8.75236 10.2638 8.92383 10.3802 9.11317 10.4592C9.30251 10.5382 9.50583 10.5783 9.711 10.577C9.89865 10.587 10.086 10.5527 10.258 10.477C10.5584 10.3378 10.827 10.1384 11.047 9.891C11.157 9.771 11.257 9.661 11.352 9.562C11.445 9.464 11.542 9.38 11.641 9.312C11.7322 9.2471 11.8411 9.21184 11.953 9.211C12.026 9.211 12.125 9.253 12.25 9.336C12.375 9.419 12.513 9.526 12.664 9.656C12.815 9.786 12.971 9.93 13.133 10.086C13.294 10.242 13.438 10.398 13.563 10.555C13.687 10.711 13.792 10.852 13.875 10.977C13.958 11.102 14 11.197 14 11.266C14.0007 11.3388 13.9866 11.4109 13.9584 11.478C13.9301 11.545 13.8885 11.6056 13.836 11.656C13.612 11.875 13.422 12.066 13.266 12.226C13.1144 12.3836 12.9468 12.525 12.766 12.648C12.5869 12.7688 12.3888 12.8588 12.18 12.914V12.914ZM15 0.704L10.36 5.352H13.648V6.352H8.648V1.352H9.648V4.64L14.297 0L15 0.703V0.704Z" fill="#4ECB71"/>
</g>
<defs>
<filter id="filter0_d" x="-3.0006" y="0" width="22.0006" height="22" filterUnits="userSpaceOnUse" color-interpolation-filters="sRGB">
<feFlood flood-opacity="0" result="BackgroundImageFix"/>
<feColorMatrix in="SourceAlpha" type="matrix" values="0 0 0 0 0 0 0 0 0 0 0 0 0 0 0 0 0 0 127 0" result="hardAlpha"/>
<feOffset dy="4"/>
<feGaussianBlur stdDeviation="2"/>
<feComposite in2="hardAlpha" operator="out"/>
<feColorMatrix type="matrix" values="0 0 0 0 0 0 0 0 0 0 0 0 0 0 0 0 0 0 0.25 0"/>
<feBlend mode="normal" in2="BackgroundImageFix" result="effect1_dropShadow"/>
<feBlend mode="normal" in="SourceGraphic" in2="effect1_dropShadow" result="shape"/>
</filter>
</defs>
</svg>
